<!--?xml version="1.0" encoding="utf-8"?-->
<!-- Generator: Adobe Illustrator 18.1.1, SVG Export Plug-In . SVG Version: 6.00 Build 0)  -->

<svg version="1.1" id="_x32_" xmlns="http://www.w3.org/2000/svg" xmlns:xlink="http://www.w3.org/1999/xlink" x="0px" y="0px" viewBox="0 0 512 512" style="width: 256px; height: 256px; opacity: 1;" xml:space="preserve">
<style type="text/css">
	.st0{fill:#4B4B4B;}
</style>
<g>
	<path class="st0" d="M243.637,92.96c-57.79,0-110.304,23.484-148.156,61.38c-37.876,37.842-61.381,90.355-61.37,148.135
		C34.1,360.276,57.606,412.79,95.482,450.63c37.852,37.876,90.366,61.381,148.156,61.37c57.78,0.012,110.293-23.494,148.145-61.37
		c37.886-37.84,61.37-90.354,61.358-148.156c0.012-57.78-23.472-110.293-61.358-148.135C353.93,116.444,301.417,92.96,243.637,92.96
		z M363.3,422.16c-30.695,30.652-72.864,49.55-119.663,49.56c-46.798-0.01-88.989-18.909-119.685-49.56
		c-30.652-30.695-49.55-72.887-49.56-119.685c0.01-46.798,18.909-88.978,49.56-119.675c30.696-30.652,72.887-49.55,119.685-49.572
		c46.8,0.022,88.968,18.92,119.663,49.572c30.652,30.696,49.562,72.876,49.572,119.675
		C412.862,349.273,393.952,391.465,363.3,422.16z" style="fill: rgb(75, 75, 75);"></path>
	<rect x="184.449" y="0" class="st0" width="118.355" height="55.241" style="fill: rgb(75, 75, 75);"></rect>
	<polygon class="st0" points="477.888,133.664 416.887,72.653 385.498,104.042 446.509,165.054 	" style="fill: rgb(75, 75, 75);"></polygon>
	<path class="st0" d="M193.786,286.831c-3.589,0-6.988,0.604-8.398,1.207l-0.392-0.392l28.772-52.568
		c0.604-1.207,0.213-2.002-1.397-2.002h-25.372c-1.41,0-1.802,0.19-2.405,1.398l-32.977,60.363
		c-6.408,11.585-10.008,21.984-10.008,33.581c0,26.782,19.603,42.772,45.58,42.772c25.786,0,45.568-15.99,45.568-43.376
		C232.757,302.844,215.178,286.831,193.786,286.831z M187.189,347.596c-10.982,0-17.982-7.783-17.982-18.786
		c0-11.183,7.001-18.988,17.982-18.988c11.003,0,17.992,7.805,17.992,18.988C205.181,339.813,198.192,347.596,187.189,347.596z" style="fill: rgb(75, 75, 75);"></path>
	<path class="st0" d="M290.346,230.873c-21.391,0-35.38,10.4-40.984,27.778c-2.002,6.005-2.996,12.2-2.996,42.382
		c0,30.181,0.995,36.388,2.996,42.37c5.603,17.388,19.592,27.788,40.984,27.788c21.381,0,35.371-10.4,40.974-27.788
		c2.002-5.983,3.008-12.189,3.008-42.37c0-30.182-1.006-36.377-3.008-42.382C325.717,241.272,311.727,230.873,290.346,230.873z
		 M304.146,338.404c-2.002,6.206-6.798,9.191-13.8,9.191c-7.19,0-11.796-2.985-13.798-9.191c-1.197-3.59-1.588-7.593-1.588-37.372
		c0-29.79,0.392-33.771,1.588-37.372c2.002-6.195,6.608-9.203,13.798-9.203c7.001,0,11.798,3.008,13.8,9.203
		c1.197,3.601,1.588,7.582,1.588,37.372C305.734,330.811,305.342,334.814,304.146,338.404z" style="fill: rgb(75, 75, 75);"></path>
</g>
</svg>
